HIERARCHY
ROOT Hips
{
	OFFSET 0.000000 0.000000 0.000000
	CHANNELS 6 Xposition Yposition Zposition Xrotation Yrotation Zrotation
	JOINT LeftUpLeg_virtual
	{
		OFFSET 0.000000 0.000000 0.000000
		CHANNELS 3 Xrotation Yrotation Zrotation
		JOINT LeftUpLeg
		{
			OFFSET 11.394100 -6.187798 -0.413800
			CHANNELS 3 Xrotation Yrotation Zrotation
			JOINT LeftLeg
			{
				OFFSET 0.430247 -32.302673 3.732800
				CHANNELS 3 Xrotation Yrotation Zrotation
				JOINT LeftFoot
				{
					OFFSET -0.430247 -48.264931 -6.423300
					CHANNELS 3 Xrotation Yrotation Zrotation
					JOINT LeftToeBase
					{
						OFFSET 4.230900 -16.068199 23.438400
						CHANNELS 3 Xrotation Yrotation Zrotation
						JOINT LeftToe_End
						{
							OFFSET 4.510700 0.695400 19.974600
							CHANNELS 3 Xrotation Yrotation Zrotation
							End Site
							{
								OFFSET 0 0 0
							}
						}
					}
				}
			}
		}
	}
	JOINT RightUpLeg_virtual
	{
		OFFSET 0.000000 0.000000 0.000000
		CHANNELS 3 Xrotation Yrotation Zrotation
		JOINT RightUpLeg
		{
			OFFSET -11.333700 -6.187798 -0.413800
			CHANNELS 3 Xrotation Yrotation Zrotation
			JOINT RightLeg
			{
				OFFSET -0.430392 -32.302628 3.733000
				CHANNELS 3 Xrotation Yrotation Zrotation
				JOINT RightFoot
				{
					OFFSET 0.430392 -48.264973 -6.423500
					CHANNELS 3 Xrotation Yrotation Zrotation
					JOINT RightToeBase
					{
						OFFSET -4.230900 -16.068199 23.438400
						CHANNELS 3 Xrotation Yrotation Zrotation
						JOINT RightToe_End
						{
							OFFSET -4.510700 0.695400 19.974600
							CHANNELS 3 Xrotation Yrotation Zrotation
							End Site
							{
								OFFSET 0 0 0
							}
						}
					}
				}
			}
		}
	}
	JOINT Spine_virtual
	{
		OFFSET 0.000000 0.000000 0.000000
		CHANNELS 3 Xrotation Yrotation Zrotation
		JOINT Spine
		{
			OFFSET -0.002400 12.777504 0.315300
			CHANNELS 3 Xrotation Yrotation Zrotation
			JOINT Spine1
			{
				OFFSET -0.002067 5.816869 0.032633
				CHANNELS 3 Xrotation Yrotation Zrotation
				JOINT Spine1_split
				{
					OFFSET -0.002067 5.816869 0.032633
					CHANNELS 3 Xrotation Yrotation Zrotation
					JOINT Spine2
					{
						OFFSET -0.002067 5.816869 0.032633
						CHANNELS 3 Xrotation Yrotation Zrotation
						JOINT Neck_virtual
						{
							OFFSET 0.000000 0.000000 0.000000
							CHANNELS 3 Xrotation Yrotation Zrotation
							JOINT Neck
							{
								OFFSET -0.003700 21.199493 -0.826900
								CHANNELS 3 Xrotation Yrotation Zrotation
								JOINT Head
								{
									OFFSET 0.000000 20.442200 4.834800
									CHANNELS 3 Xrotation Yrotation Zrotation
									JOINT HeadTop_End
									{
										OFFSET 0.000000 34.668396 4.968400
										CHANNELS 3 Xrotation Yrotation Zrotation
										End Site
										{
											OFFSET 0 0 0
										}
									}
								}
							}
						}
						JOINT LeftShoulder_virtual
						{
							OFFSET 0.000000 0.000000 0.000000
							CHANNELS 3 Xrotation Yrotation Zrotation
							JOINT LeftShoulder
							{
								OFFSET 3.288150 8.794197 -1.372250
								CHANNELS 3 Xrotation Yrotation Zrotation
								JOINT LeftShoulder_split
								{
									OFFSET 3.288150 8.794197 -1.372250
									CHANNELS 3 Xrotation Yrotation Zrotation
									JOINT LeftArm
									{
										OFFSET 11.953299 -2.279007 -0.146200
										CHANNELS 3 Xrotation Yrotation Zrotation
										JOINT LeftForeArm
										{
											OFFSET 18.448900 0.000000 0.000000
											CHANNELS 3 Xrotation Yrotation Zrotation
											JOINT LeftHand
											{
												OFFSET 29.527798 0.000000 0.000000
												CHANNELS 3 Xrotation Yrotation Zrotation
												End Site
												{
													OFFSET 0 0 0
												}
											}
										}
									}
								}
							}
						}
						JOINT RightShoulder_virtual
						{
							OFFSET 0.000000 0.000000 0.000000
							CHANNELS 3 Xrotation Yrotation Zrotation
							JOINT RightShoulder
							{
								OFFSET -3.249400 8.794197 -1.372250
								CHANNELS 3 Xrotation Yrotation Zrotation
								JOINT RightShoulder_split
								{
									OFFSET -3.249400 8.794197 -1.372250
									CHANNELS 3 Xrotation Yrotation Zrotation
									JOINT RightArm
									{
										OFFSET -11.953299 -2.279007 -0.146200
										CHANNELS 3 Xrotation Yrotation Zrotation
										JOINT RightForeArm
										{
											OFFSET -18.448900 0.000000 0.000000
											CHANNELS 3 Xrotation Yrotation Zrotation
											JOINT RightHand
											{
												OFFSET -29.527802 0.000000 0.000000
												CHANNELS 3 Xrotation Yrotation Zrotation
												End Site
												{
													OFFSET 0 0 0
												}
											}
										}
									}
								}
							}
						}
					}
				}
			}
		}
	}
}
MOTION
Frames: 8
Frame Time: 0.03333333
-0.121068 82.044655 0.170422 0.000000 0.000000 0.000000 -7.737233 -51.476113 -1.574309 -36.673926 11.013983 19.613108 59.177258 -2.916853 4.640534 -21.506818 -8.124793 -14.379647 -2.975434 0.323594 1.437658 0.000000 0.000000 0.000000 -8.460001 -48.404851 -0.896253 -26.625785 -6.760584 -28.131468 57.187337 -7.271051 -9.255079 -19.652461 -5.448981 24.728613 0.072846 1.048923 0.319700 0.000000 0.000000 0.000000 -7.137765 -47.524299 -0.649792 10.949476 8.119857 -1.013133 1.531537 1.712426 -0.797415 0.741429 0.870826 0.387514 0.000000 0.000000 0.000000 2.172405 0.923633 -0.639078 -1.492286 10.594203 3.105593 8.936702 20.259458 -4.576327 0.000000 0.000000 0.000000 2.644048 0.851597 -0.859087 0.705367 1.378195 -5.348702 -1.490337 -1.153815 -1.732987 -53.185713 2.892647 -50.242772 -172.166202 -75.202418 -168.081038 0.000000 0.000000 0.000000 3.283319 1.223356 -0.802898 2.300401 11.421725 -7.118693 0.516245 -0.027666 1.620587 -53.418974 30.221572 85.664554 -179.089049 70.168692 177.401268 0.000000 0.000000 0.000000 
-0.086176 82.177795 0.339958 0.000000 0.000000 0.000000 -7.484366 -51.487800 -1.317900 -36.295099 10.779423 19.409745 59.395530 -3.134678 4.726899 -21.067843 -7.808867 -14.135545 -3.224824 0.277843 1.350777 0.000000 0.000000 0.000000 -8.606483 -48.258237 -0.828071 -26.355899 -7.323188 -28.141599 56.918511 -7.601025 -9.085932 -20.185530 -5.737396 24.127373 0.695956 1.116499 0.005262 0.000000 0.000000 0.000000 -7.122703 -47.420443 -0.718730 10.881904 8.143201 -1.166596 1.492391 1.603098 -0.765636 0.886621 1.507645 0.673549 0.000000 0.000000 0.000000 2.031896 0.909955 -0.625360 -1.688820 11.056436 2.993395 8.514386 20.530903 -4.523456 0.000000 0.000000 0.000000 2.676260 0.795596 -0.764809 0.702381 0.782959 -5.620975 -0.729435 -1.199272 -0.620129 -53.835479 4.190609 -50.490025 -176.749982 -75.510719 -172.899559 0.000000 0.000000 0.000000 3.243720 1.177301 -0.731393 2.264311 11.696930 -7.029074 0.514746 -0.529054 1.251946 -53.595535 30.130321 85.204267 -179.215571 69.879945 177.579085 0.000000 0.000000 0.000000 
-0.111577 82.451256 0.420555 0.000000 0.000000 0.000000 -7.246216 -51.441245 -1.035795 -35.719601 10.680690 19.390168 59.322105 -3.859191 4.637616 -20.749215 -7.484058 -13.897152 -3.494931 0.182734 1.179372 0.000000 0.000000 0.000000 -8.676817 -48.292699 -0.724403 -25.912877 -8.093767 -28.065690 56.105196 -7.742794 -8.884585 -20.695277 -6.022190 23.259936 0.472288 1.208793 -0.533240 0.000000 0.000000 0.000000 -6.900619 -47.625335 -0.662977 10.711922 8.197714 -1.362365 1.457733 1.501383 -0.800629 0.629963 1.481762 0.633345 0.000000 0.000000 0.000000 1.880329 0.979860 -0.687858 -1.862504 11.779130 3.040971 8.158773 21.071058 -4.077620 0.000000 0.000000 0.000000 2.773075 0.833202 -0.719308 0.603590 -0.157425 -5.868817 -0.043872 -0.081645 1.019073 -55.028444 6.381219 -49.991019 179.495718 -74.227436 -176.952702 0.000000 0.000000 0.000000 3.101807 1.227223 -0.719442 2.254610 11.972423 -6.486886 0.329417 -1.059650 0.887520 -54.081878 30.785578 84.572379 -179.570031 69.589389 177.996014 0.000000 0.000000 0.000000 
-0.097148 82.814285 0.533844 0.000000 0.000000 0.000000 -7.068582 -51.618622 -0.847617 -35.010180 10.995215 19.623953 58.913175 -4.834946 4.299527 -20.674341 -6.997025 -13.650209 -3.672039 0.048322 0.947875 0.000000 0.000000 0.000000 -8.570018 -48.829876 -0.611181 -25.498756 -8.878463 -27.878063 54.873603 -7.579493 -8.703015 -20.762867 -6.206802 22.213898 -0.600016 1.261905 -0.987896 0.000000 0.000000 0.000000 -6.513120 -48.455326 -0.434016 10.394261 8.281890 -1.554744 1.428850 1.482612 -0.904405 0.275059 1.173551 0.501490 0.000000 0.000000 0.000000 1.737278 1.156041 -0.802214 -2.006353 12.526406 3.229892 7.963158 22.122295 -3.472839 0.000000 0.000000 0.000000 2.793417 0.993948 -0.772127 0.490997 -1.042458 -5.855830 0.514637 1.447903 2.429099 -55.889030 8.426971 -49.164904 178.447571 -72.211594 -178.459060 0.000000 0.000000 0.000000 2.910215 1.381271 -0.811232 2.236752 12.194051 -5.561707 0.177626 -1.163805 0.528734 -54.856169 32.205127 84.025185 -179.944776 69.304229 178.441219 0.000000 0.000000 0.000000 
-0.106842 83.199936 0.905617 0.000000 0.000000 0.000000 -6.866856 -52.470336 -0.759121 -34.160057 11.815366 20.108050 58.051301 -5.673216 3.686616 -21.129971 -6.154245 -13.171928 -3.761289 -0.102466 0.738499 0.000000 0.000000 0.000000 -8.127573 -50.086450 -0.433009 -25.491468 -9.259433 -27.576974 53.389021 -6.994261 -8.596180 -20.157304 -6.152237 21.188613 -1.873827 1.221560 -1.159559 0.000000 0.000000 0.000000 -5.902238 -49.914135 -0.006165 9.945471 8.365690 -1.699057 1.346197 1.574718 -1.072766 -0.067674 0.819258 0.184000 0.000000 0.000000 0.000000 1.600515 1.408428 -0.981212 -2.162475 13.195153 3.440896 7.719268 23.738280 -2.958897 0.000000 0.000000 0.000000 2.709303 1.274187 -0.906615 0.378486 -1.473473 -5.358422 0.265836 1.988566 2.650977 -55.271188 9.955864 -47.723788 179.273491 -69.585325 -178.111813 0.000000 0.000000 0.000000 2.698679 1.611749 -0.987337 2.164569 12.211197 -4.551998 0.007764 -1.310584 0.277920 -56.078104 34.532986 83.875222 179.760566 69.184837 178.787906 0.000000 0.000000 0.000000 
-0.071247 83.597809 1.527870 0.000000 0.000000 0.000000 -6.578340 -54.325204 -0.760055 -33.055001 13.077231 20.755891 56.785793 -6.087037 2.898865 -22.121395 -4.874780 -12.336384 -3.761891 -0.241493 0.582569 0.000000 0.000000 0.000000 -7.408459 -52.211540 -0.257301 -26.129022 -9.091115 -27.120024 51.910937 -6.006695 -8.586192 -18.927764 -5.790475 20.309028 -2.565876 1.073391 -0.947177 0.000000 0.000000 0.000000 -5.212598 -52.131583 0.434092 9.479132 8.359358 -1.767999 1.160498 1.738645 -1.301492 -0.251790 0.378706 0.247192 0.000000 0.000000 0.000000 1.470146 1.662294 -1.179248 -2.512463 13.740673 3.639526 7.266313 25.735390 -2.784388 0.000000 0.000000 0.000000 2.539108 1.584522 -1.063638 0.302110 -1.078848 -4.174959 -0.322883 1.673457 1.984895 -53.494861 10.146500 -45.787112 -179.144606 -67.226779 -176.992140 0.000000 0.000000 0.000000 2.547779 1.845705 -1.202003 2.008238 11.885551 -3.733869 -0.290937 -1.929830 0.198763 -57.791098 37.705243 84.381673 179.658168 69.534331 178.962376 0.000000 0.000000 0.000000 
0.017442 83.996407 2.232113 0.000000 0.000000 0.000000 -6.168036 -57.182521 -0.812582 -31.775993 14.521406 21.472928 55.393203 -6.138341 2.161003 -23.419484 -3.277271 -11.178036 -3.778248 -0.359171 0.562801 0.000000 0.000000 0.000000 -6.643366 -55.016419 -0.147086 -27.224798 -8.438823 -26.454895 50.623597 -4.734390 -8.675271 -17.550579 -5.161751 19.467929 -2.307308 0.886156 -0.509398 0.000000 0.000000 0.000000 -4.449815 -54.679192 0.778277 9.029832 8.263322 -1.696779 0.945385 1.863201 -1.510673 -0.077430 0.356285 0.670039 0.000000 0.000000 0.000000 1.398432 1.791615 -1.318836 -3.230706 14.257882 3.793919 6.529634 27.959559 -3.038079 0.000000 0.000000 0.000000 2.246898 1.778881 -1.182808 0.149975 -0.025240 -2.475596 -0.498568 0.840816 0.660553 -52.347167 8.403030 -43.142258 -177.953926 -66.619602 -176.149021 0.000000 0.000000 0.000000 2.415380 1.980227 -1.363399 1.799483 11.256745 -3.273625 -0.429394 -2.861136 0.386071 -59.938284 41.467680 85.434363 179.805276 70.439249 178.917051 0.000000 0.000000 0.000000 
0.123973 84.355705 2.981037 0.000000 0.000000 0.000000 -5.856680 -60.470793 -1.013141 -30.441846 15.878976 22.082454 54.105958 -5.904042 1.629805 -24.792344 -1.628753 -9.794544 -3.681180 -0.454879 0.623458 0.000000 0.000000 0.000000 -6.030582 -58.057373 -0.188399 -28.446749 -7.451361 -25.526345 49.529260 -3.355529 -8.887794 -16.474543 -4.417072 18.727954 -1.274993 0.763081 -0.088874 0.000000 0.000000 0.000000 -3.773530 -57.117969 0.828373 8.654445 8.033111 -1.440593 0.741775 1.789540 -1.625357 0.505153 0.116550 0.921905 0.000000 0.000000 0.000000 1.373370 1.652468 -1.354542 -4.393059 14.813885 3.927059 5.543229 30.095702 -3.690186 0.000000 0.000000 0.000000 1.961089 1.697465 -1.193281 -0.093818 1.282886 -0.461106 -0.238439 0.134531 -0.965715 -52.874134 4.455559 -38.968234 -176.700723 -70.744996 -174.871093 0.000000 0.000000 0.000000 2.199430 1.876167 -1.377630 1.574657 10.379658 -3.185416 -0.410331 -3.849814 0.595181 -62.344450 45.239352 86.820536 -179.848347 71.695690 178.690521 0.000000 0.000000 0.000000 
